HIERARCHY
ROOT joint_0
{
	OFFSET 0.000000 0.000000 0.000000
	CHANNELS 6 Xposition Yposition Zposition Zrotation Yrotation Xrotation 
	JOINT joint_1
	{
		OFFSET 0.587158 0.057678 95.682007
		CHANNELS 3 Zrotation Yrotation Xrotation
		JOINT joint_2
		{
			OFFSET -7.116699 -0.219910 87.157959
			CHANNELS 3 Zrotation Yrotation Xrotation
			JOINT joint_3
			{
				OFFSET -5.892822 -0.290222 87.151001
				CHANNELS 3 Zrotation Yrotation Xrotation
				JOINT joint_4
				{
					OFFSET 5.544678 -0.099609 123.768066
					CHANNELS 3 Zrotation Yrotation Xrotation
					JOINT joint_5
					{
						OFFSET 41.981201 4.519775 84.257935
						CHANNELS 3 Zrotation Yrotation Xrotation
						End Site
						{
							OFFSET 0.000000 0.000000 0.000000
						}
					}
				}
				JOINT joint_6
				{
					OFFSET 3.940918 -26.976501 69.308105
					CHANNELS 3 Zrotation Yrotation Xrotation
					JOINT joint_7
					{
						OFFSET 4.776123 -152.592468 -16.842041
						CHANNELS 3 Zrotation Yrotation Xrotation
						JOINT joint_8
						{
							OFFSET 54.421875 -30.424072 -248.864014
							CHANNELS 3 Zrotation Yrotation Xrotation
							JOINT joint_9
							{
								OFFSET 42.120117 -33.387878 -236.524963
								CHANNELS 3 Zrotation Yrotation Xrotation
								End Site
								{
									OFFSET 0.000000 0.000000 0.000000
								}
							}
						}
					}
				}
				JOINT joint_10
				{
					OFFSET 2.312012 26.904114 69.425049
					CHANNELS 3 Zrotation Yrotation Xrotation
					JOINT joint_11
					{
						OFFSET 0.971436 152.197815 -20.626953
						CHANNELS 3 Zrotation Yrotation Xrotation
						JOINT joint_12
						{
							OFFSET 49.954102 28.991455 -249.970093
							CHANNELS 3 Zrotation Yrotation Xrotation
							JOINT joint_13
							{
								OFFSET 48.146973 19.598389 -236.919922
								CHANNELS 3 Zrotation Yrotation Xrotation
								End Site
								{
									OFFSET 0.000000 0.000000 0.000000
								}
							}
						}
					}
				}
			}
		}
	}
	JOINT joint_14
	{
		OFFSET 16.305664 -89.442932 -108.224976
		CHANNELS 3 Zrotation Yrotation Xrotation
		JOINT joint_15
		{
			OFFSET -22.282471 13.437134 -412.904968
			CHANNELS 3 Zrotation Yrotation Xrotation
			JOINT joint_16
			{
				OFFSET -45.426025 14.484802 -445.892029
				CHANNELS 3 Zrotation Yrotation Xrotation
				JOINT joint_17
				{
					OFFSET 173.389404 -9.944031 -76.473001
					CHANNELS 3 Zrotation Yrotation Xrotation
					End Site
					{
						OFFSET 0.000000 0.000000 0.000000
					}
				}
			}
		}
	}
	JOINT joint_18
	{
		OFFSET 13.392822 89.408875 -108.653992
		CHANNELS 3 Zrotation Yrotation Xrotation
		JOINT joint_19
		{
			OFFSET -29.032959 24.483521 -411.977966
			CHANNELS 3 Zrotation Yrotation Xrotation
			JOINT joint_20
			{
				OFFSET -30.530029 28.986328 -446.453018
				CHANNELS 3 Zrotation Yrotation Xrotation
				JOINT joint_21
				{
					OFFSET 170.330078 33.400757 -76.698997
					CHANNELS 3 Zrotation Yrotation Xrotation
					End Site
					{
						OFFSET 0.000000 0.000000 0.000000
					}
				}
			}
		}
	}
}
MOTION
Frames: 12
Frame Time: 0.016667
-2280.507568 914.813904 1061.343018 -6.561814 -1.452847 -0.105898 0.494578 1.848134 1.319022 0.344939 -0.360533 -0.317586 0.381008 0.322253 0.194484 -0.156608 2.634857 0.053717 0.000000 0.000000 0.000000 -0.904296 0.721007 -0.125386 0.255367 0.629805 0.952863 -0.311716 -0.603931 -2.303278 0.000000 0.000000 0.000000 1.751552 1.275102 0.398718 -0.041002 1.040228 -0.791602 0.163277 0.223798 0.706899 0.000000 0.000000 0.000000 -0.914233 1.821389 -4.140719 -1.253896 -0.600948 -0.432312 -1.212271 0.711913 -0.488753 0.000000 0.000000 0.000000 0.376138 2.255726 0.098203 0.066707 -1.128497 1.487473 0.339461 1.445900 -0.130946 0.000000 0.000000 0.000000 
-2281.052979 914.782227 1061.312012 -6.537236 -1.449327 -0.088856 0.482591 1.829027 1.302255 0.335350 -0.361946 -0.308419 0.370304 0.325355 0.187167 -0.150036 2.650004 0.039250 0.000000 0.000000 0.000000 -0.905834 0.745993 -0.113588 0.254912 0.654882 0.969854 -0.299984 -0.632694 -2.259198 0.000000 0.000000 0.000000 1.756559 1.277810 0.370792 -0.040868 1.042047 -0.786562 0.159873 0.254278 0.677558 0.000000 0.000000 0.000000 -0.922615 1.741388 -4.162339 -1.258032 -0.507621 -0.417471 -1.218922 0.643890 -0.495572 0.000000 0.000000 0.000000 0.357700 2.223258 0.087903 0.048668 -1.143878 1.489489 0.325276 1.475922 -0.143226 0.000000 0.000000 0.000000 
-2281.583008 914.737915 1061.291992 -6.505855 -1.452103 -0.076158 0.470984 1.818277 1.290704 0.325435 -0.361823 -0.301644 0.359600 0.328694 0.182202 -0.145250 2.655949 0.029187 0.000000 0.000000 0.000000 -0.909276 0.772131 -0.103033 0.254346 0.680949 0.986528 -0.289691 -0.656157 -2.218996 0.000000 0.000000 0.000000 1.757699 1.280698 0.342242 -0.040890 1.044572 -0.786534 0.154653 0.260507 0.649473 0.000000 0.000000 0.000000 -0.931364 1.675786 -4.178677 -1.262981 -0.423397 -0.403993 -1.226308 0.575118 -0.502757 0.000000 0.000000 0.000000 0.338765 2.191705 0.087879 0.032221 -1.147712 1.481319 0.310823 1.499391 -0.154339 0.000000 0.000000 0.000000 
-2282.102295 914.669922 1061.267944 -6.463450 -1.468276 -0.069047 0.458029 1.829525 1.286200 0.312768 -0.365498 -0.301947 0.347032 0.333074 0.183089 -0.143239 2.647944 0.025925 0.000000 0.000000 0.000000 -0.909823 0.798849 -0.097374 0.254900 0.708103 1.007789 -0.281547 -0.674010 -2.186505 0.000000 0.000000 0.000000 1.757423 1.285897 0.317423 -0.041640 1.049597 -0.797787 0.147319 0.228163 0.627168 0.000000 0.000000 0.000000 -0.940045 1.636379 -4.189672 -1.269056 -0.353362 -0.389453 -1.234431 0.501474 -0.510545 0.000000 0.000000 0.000000 0.317703 2.163474 0.106042 0.017482 -1.130270 1.452400 0.294304 1.507302 -0.163325 0.000000 0.000000 0.000000 
-2282.607422 914.589355 1061.255005 -6.414209 -1.490893 -0.066255 0.444925 1.851095 1.287286 0.299184 -0.370043 -0.304739 0.333778 0.338160 0.184818 -0.143393 2.631456 0.027783 0.000000 0.000000 0.000000 -0.910162 0.826726 -0.091442 0.255161 0.736441 1.028178 -0.274774 -0.686384 -2.157295 0.000000 0.000000 0.000000 1.754988 1.291428 0.293457 -0.042573 1.055260 -0.814134 0.138167 0.171848 0.605954 0.000000 0.000000 0.000000 -0.949172 1.611288 -4.195435 -1.275984 -0.292180 -0.376255 -1.243311 0.426998 -0.518712 0.000000 0.000000 0.000000 0.296251 2.136292 0.134381 0.004412 -1.101472 1.413367 0.277596 1.508573 -0.171093 0.000000 0.000000 0.000000 
-2283.089600 914.519348 1061.248047 -6.374170 -1.513188 -0.061843 0.435838 1.870536 1.290450 0.289456 -0.373596 -0.307778 0.324400 0.342531 0.186587 -0.142746 2.619397 0.027596 0.000000 0.000000 0.000000 -0.907409 0.854486 -0.085752 0.254579 0.764944 1.043855 -0.271963 -0.685112 -2.139530 0.000000 0.000000 0.000000 1.755359 1.297018 0.265553 -0.042808 1.060653 -0.828158 0.127316 0.106494 0.580158 0.000000 0.000000 0.000000 -0.955130 1.588246 -4.198911 -1.279404 -0.236862 -0.371885 -1.249384 0.360786 -0.525174 0.000000 0.000000 0.000000 0.280592 2.112273 0.153371 -0.004646 -1.075397 1.384808 0.265802 1.512701 -0.177210 0.000000 0.000000 0.000000 
-2283.550781 914.475952 1061.249023 -6.350035 -1.531583 -0.052152 0.431741 1.883444 1.292197 0.285128 -0.377173 -0.308030 0.320089 0.347373 0.186266 -0.139675 2.613579 0.021958 0.000000 0.000000 0.000000 -0.897601 0.881574 -0.079495 0.253215 0.793454 1.054567 -0.275098 -0.663310 -2.138891 0.000000 0.000000 0.000000 1.764345 1.302692 0.230172 -0.041479 1.065075 -0.835224 0.113380 0.030429 0.543664 0.000000 0.000000 0.000000 -0.955426 1.563464 -4.200750 -1.276415 -0.190554 -0.383955 -1.250440 0.307437 -0.528697 0.000000 0.000000 0.000000 0.273959 2.090633 0.151607 -0.008335 -1.057469 1.377868 0.261717 1.525700 -0.181602 0.000000 0.000000 0.000000 
-2283.989990 914.442139 1061.255005 -6.334894 -1.550054 -0.040711 0.430974 1.895093 1.294465 0.284271 -0.379374 -0.306272 0.319037 0.350547 0.184893 -0.135619 2.612326 0.013906 0.000000 0.000000 0.000000 -0.883063 0.908512 -0.073520 0.251053 0.822282 1.060871 -0.282208 -0.627728 -2.149673 0.000000 0.000000 0.000000 1.777613 1.308494 0.191608 -0.039505 1.069100 -0.840175 0.097662 -0.054379 0.501983 0.000000 0.000000 0.000000 -0.952726 1.541055 -4.200270 -1.270077 -0.149749 -0.404939 -1.248858 0.262055 -0.530606 0.000000 0.000000 0.000000 0.272861 2.072689 0.140500 -0.008312 -1.042410 1.381402 0.262264 1.541436 -0.184447 0.000000 0.000000 0.000000 
-2284.396729 914.392151 1061.258057 -6.325023 -1.570420 -0.030934 0.432668 1.907055 1.299748 0.285504 -0.382746 -0.306107 0.320263 0.355736 0.184589 -0.131088 2.610403 0.004963 0.000000 0.000000 0.000000 -0.872360 0.931121 -0.064872 0.247363 0.846132 1.057990 -0.291230 -0.582916 -2.163776 0.000000 0.000000 0.000000 1.788976 1.312544 0.158552 -0.038824 1.071522 -0.849298 0.084126 -0.128760 0.466541 0.000000 0.000000 0.000000 -0.951194 1.516733 -4.200360 -1.265022 -0.100322 -0.418602 -1.247919 0.220265 -0.532595 0.000000 0.000000 0.000000 0.274647 2.060101 0.132754 -0.005411 -1.028157 1.382827 0.265360 1.555064 -0.185730 0.000000 0.000000 0.000000 
-2284.768799 914.316101 1061.253052 -6.321911 -1.594668 -0.023762 0.438220 1.923751 1.308224 0.290246 -0.388176 -0.306484 0.324993 0.362185 0.183586 -0.126475 2.607698 -0.004095 0.000000 0.000000 0.000000 -0.868953 0.948114 -0.051007 0.241505 0.863230 1.043104 -0.301886 -0.526720 -2.177738 0.000000 0.000000 0.000000 1.796896 1.313039 0.138726 -0.041530 1.070568 -0.870635 0.074759 -0.183098 0.443147 0.000000 0.000000 0.000000 -0.951679 1.487606 -4.203116 -1.262258 -0.032794 -0.417159 -1.248158 0.178606 -0.535103 0.000000 0.000000 0.000000 0.279596 2.056390 0.132715 0.000989 -1.016247 1.377166 0.271301 1.565319 -0.185071 0.000000 0.000000 0.000000 
-2285.109375 914.221924 1061.244019 -6.322913 -1.621148 -0.018038 0.445679 1.941435 1.317253 0.296969 -0.393255 -0.305431 0.331592 0.367476 0.182387 -0.121833 2.606072 -0.013318 0.000000 0.000000 0.000000 -0.869201 0.961699 -0.034354 0.234139 0.876297 1.019446 -0.314292 -0.462362 -2.195067 0.000000 0.000000 0.000000 1.803269 1.312193 0.125067 -0.045592 1.068372 -0.896423 0.067649 -0.226025 0.426049 0.000000 0.000000 0.000000 -0.953747 1.457301 -4.206614 -1.261248 0.043080 -0.408318 -1.249507 0.140105 -0.537919 0.000000 0.000000 0.000000 0.286798 2.058128 0.136056 0.009656 -1.004846 1.369310 0.279161 1.573271 -0.183096 0.000000 0.000000 0.000000 
-2285.418457 914.108582 1061.234009 -6.319878 -1.647259 -0.014226 0.450005 1.953303 1.327382 0.300405 -0.397418 -0.306120 0.335108 0.372612 0.182449 -0.118334 2.609217 -0.020675 0.000000 0.000000 0.000000 -0.868387 0.973682 -0.018574 0.226379 0.887813 0.991852 -0.325915 -0.405650 -2.214507 0.000000 0.000000 0.000000 1.808363 1.313010 0.107805 -0.046590 1.068305 -0.906941 0.060225 -0.262754 0.404824 0.000000 0.000000 0.000000 -0.957610 1.430551 -4.207012 -1.262041 0.115315 -0.399857 -1.252369 0.108481 -0.541004 0.000000 0.000000 0.000000 0.291992 2.058328 0.141476 0.016733 -0.988039 1.363650 0.285065 1.578326 -0.181432 0.000000 0.000000 0.000000 
